<svg xmlns="http://www.w3.org/2000/svg" xmlns:xlink="http://www.w3.org/1999/xlink" width="1000" zoomAndPan="magnify" viewBox="0 0 750 374.999991" height="500" preserveAspectRatio="xMidYMid meet" version="1.0"><defs><g/><clipPath id="46b97d748d"><path d="M 0.257812 52.183594 L 259 52.183594 L 259 322.933594 L 0.257812 322.933594 Z M 0.257812 52.183594 " clip-rule="nonzero"/></clipPath><clipPath id="1aeb998463"><path d="M 98.25 246.761719 L 62.640625 226.207031 L 17.582031 200.191406 L 20.316406 198.609375 L 40.113281 210.035156 L 40.113281 194.882812 L 30.148438 189.132812 L 20.1875 183.382812 L 10.226562 189.132812 L 0.257812 194.878906 L 0.257812 217.882812 L 10.21875 223.632812 L 20.183594 229.386719 L 30.144531 223.632812 L 36.042969 220.230469 L 63.425781 236.042969 L 108.484375 262.058594 L 105.75 263.640625 L 94.179688 256.957031 L 94.179688 266.125 L 101.546875 270.375 L 108.914062 274.628906 L 116.28125 270.375 L 123.648438 266.125 L 123.648438 249.105469 L 116.28125 244.851562 L 108.914062 240.601562 L 101.546875 244.851562 Z M 62.617188 199.113281 L 67.597656 196.238281 L 72.574219 193.363281 L 72.574219 181.859375 L 67.597656 178.984375 L 62.617188 176.109375 L 57.632812 178.984375 L 52.65625 181.859375 L 52.65625 193.363281 L 57.632812 196.238281 Z M 145 224.757812 L 140.015625 227.632812 L 140.015625 239.136719 L 145 242.011719 L 149.976562 244.886719 L 154.960938 242.011719 L 159.941406 239.136719 L 159.941406 227.632812 L 154.960938 224.757812 L 149.976562 221.882812 Z M 100.53125 124.796875 L 105.515625 121.921875 L 105.515625 110.421875 L 100.53125 107.546875 L 95.546875 104.667969 L 90.566406 107.546875 L 85.585938 110.421875 L 85.585938 121.921875 L 90.566406 124.796875 L 95.546875 127.675781 Z M 163.429688 120.519531 L 158.445312 123.394531 L 158.445312 134.894531 L 163.429688 137.769531 L 168.414062 140.648438 L 173.398438 137.769531 L 178.382812 134.894531 L 178.382812 123.394531 L 173.398438 120.519531 L 168.414062 117.640625 Z M 168.777344 322.9375 C 170.40625 259.425781 222.691406 291.289062 234.382812 283.085938 C 238.859375 279.941406 240.648438 274.152344 238.71875 269.027344 C 236.746094 261.765625 237.542969 256.277344 241.097656 252.558594 C 246.703125 250.300781 248.167969 247.308594 245.492188 243.59375 C 241.503906 239.488281 241.5625 236.195312 245.671875 233.714844 C 251.5625 231.183594 251.808594 227.523438 246.40625 222.734375 C 239.421875 216.3125 242.046875 210.457031 254.273438 205.164062 C 259.710938 203.199219 260.015625 199.175781 255.1875 193.082031 C 220.027344 155.773438 250.953125 131.199219 209.878906 92.925781 C 184.871094 69.625 144.449219 58.683594 111.003906 61.253906 L 104.609375 57.566406 L 95.3125 52.183594 L 86.015625 57.554688 L 76.714844 62.925781 L 76.714844 76.734375 L 91.378906 68.265625 L 94.113281 69.847656 L 75.597656 80.539062 L 31.90625 106.234375 L 28.726562 104.394531 L 21.359375 100.144531 L 6.625 108.644531 L 6.625 125.660156 L 13.992188 129.910156 L 21.359375 134.164062 L 28.726562 129.910156 L 29.632812 129.382812 L 19.167969 123.339844 L 19.167969 119.992188 L 32.535156 127.710938 L 101.546875 164.371094 L 101.546875 192.734375 L 116.421875 201.328125 L 131.296875 209.917969 L 146.171875 201.328125 L 161.046875 192.734375 L 161.046875 158.378906 L 131.296875 141.199219 L 116.421875 149.789062 L 107.378906 155.007812 L 134.351562 170.578125 L 134.351562 173.929688 L 104.472656 156.683594 L 36.09375 120.367188 L 36.09375 113.207031 L 80.941406 86.832031 L 86.019531 89.765625 L 95.320312 95.136719 L 104.621094 89.765625 L 113.910156 84.394531 L 113.910156 74.058594 C 149.265625 67.867188 184.546875 85.6875 200.683594 117.617188 C 217.167969 147.488281 217.425781 185.542969 198.515625 215.535156 C 168.976562 262.394531 131.710938 249.90625 120.292969 322.9375 Z M 168.777344 322.9375 " clip-rule="nonzero"/></clipPath><linearGradient x1="486.161526" gradientTransform="matrix(0.585643, 0, 0, 0.585659, 0.258778, 52.183019)" y1="387.732581" x2="-43.761805" gradientUnits="userSpaceOnUse" y2="73.892346" id="351ee3877c"><stop stop-opacity="1" stop-color="rgb(0%, 39.608765%, 97.24884%)" offset="0"/><stop stop-opacity="1" stop-color="rgb(0%, 39.608765%, 97.24884%)" offset="0.0625"/><stop stop-opacity="1" stop-color="rgb(0.00305176%, 39.781189%, 97.206116%)" offset="0.0703125"/><stop stop-opacity="1" stop-color="rgb(0.012207%, 40.153503%, 97.113037%)" offset="0.0742188"/><stop stop-opacity="1" stop-color="rgb(0.0183105%, 40.354919%, 97.064209%)" offset="0.078125"/><stop stop-opacity="1" stop-color="rgb(0.0228882%, 40.55481%, 97.013855%)" offset="0.0820313"/><stop stop-opacity="1" stop-color="rgb(0.0274658%, 40.7547%, 96.965027%)" offset="0.0859375"/><stop stop-opacity="1" stop-color="rgb(0.0320435%, 40.95459%, 96.914673%)" offset="0.0898438"/><stop stop-opacity="1" stop-color="rgb(0.038147%, 41.156006%, 96.865845%)" offset="0.09375"/><stop stop-opacity="1" stop-color="rgb(0.0427246%, 41.355896%, 96.815491%)" offset="0.0976562"/><stop stop-opacity="1" stop-color="rgb(0.0473022%, 41.555786%, 96.766663%)" offset="0.101562"/><stop stop-opacity="1" stop-color="rgb(0.0518799%, 41.755676%, 96.716309%)" offset="0.105469"/><stop stop-opacity="1" stop-color="rgb(0.0579834%, 41.957092%, 96.66748%)" offset="0.109375"/><stop stop-opacity="1" stop-color="rgb(0.062561%, 42.156982%, 96.617126%)" offset="0.113281"/><stop stop-opacity="1" stop-color="rgb(0.0671387%, 42.356873%, 96.568298%)" offset="0.117188"/><stop stop-opacity="1" stop-color="rgb(0.0717163%, 42.556763%, 96.517944%)" offset="0.121094"/><stop stop-opacity="1" stop-color="rgb(0.0778198%, 42.756653%, 96.469116%)" offset="0.125"/><stop stop-opacity="1" stop-color="rgb(0.0823975%, 42.956543%, 96.418762%)" offset="0.128906"/><stop stop-opacity="1" stop-color="rgb(0.0869751%, 43.157959%, 96.369934%)" offset="0.132813"/><stop stop-opacity="1" stop-color="rgb(0.0915527%, 43.357849%, 96.31958%)" offset="0.136719"/><stop stop-opacity="1" stop-color="rgb(0.0976562%, 43.557739%, 96.270752%)" offset="0.140625"/><stop stop-opacity="1" stop-color="rgb(0.102234%, 43.757629%, 96.220398%)" offset="0.144531"/><stop stop-opacity="1" stop-color="rgb(0.106812%, 43.959045%, 96.17157%)" offset="0.148438"/><stop stop-opacity="1" stop-color="rgb(0.111389%, 44.158936%, 96.121216%)" offset="0.152344"/><stop stop-opacity="1" stop-color="rgb(0.117493%, 44.358826%, 96.072388%)" offset="0.15625"/><stop stop-opacity="1" stop-color="rgb(0.12207%, 44.558716%, 96.022034%)" offset="0.160156"/><stop stop-opacity="1" stop-color="rgb(0.126648%, 44.758606%, 95.973206%)" offset="0.164063"/><stop stop-opacity="1" stop-color="rgb(0.131226%, 44.958496%, 95.922852%)" offset="0.167969"/><stop stop-opacity="1" stop-color="rgb(0.137329%, 45.159912%, 95.874023%)" offset="0.171875"/><stop stop-opacity="1" stop-color="rgb(0.141907%, 45.359802%, 95.823669%)" offset="0.175781"/><stop stop-opacity="1" stop-color="rgb(0.146484%, 45.559692%, 95.774841%)" offset="0.179688"/><stop stop-opacity="1" stop-color="rgb(0.151062%, 45.759583%, 95.724487%)" offset="0.183594"/><stop stop-opacity="1" stop-color="rgb(0.157166%, 45.960999%, 95.675659%)" offset="0.1875"/><stop stop-opacity="1" stop-color="rgb(0.161743%, 46.160889%, 95.625305%)" offset="0.191406"/><stop stop-opacity="1" stop-color="rgb(0.167847%, 46.360779%, 95.576477%)" offset="0.195313"/><stop stop-opacity="1" stop-color="rgb(0.172424%, 46.560669%, 95.526123%)" offset="0.199219"/><stop stop-opacity="1" stop-color="rgb(0.177002%, 46.762085%, 95.477295%)" offset="0.203125"/><stop stop-opacity="1" stop-color="rgb(0.18158%, 46.961975%, 95.426941%)" offset="0.207031"/><stop stop-opacity="1" stop-color="rgb(0.187683%, 47.161865%, 95.378113%)" offset="0.210938"/><stop stop-opacity="1" stop-color="rgb(0.192261%, 47.361755%, 95.327759%)" offset="0.214844"/><stop stop-opacity="1" stop-color="rgb(0.196838%, 47.561646%, 95.277405%)" offset="0.21875"/><stop stop-opacity="1" stop-color="rgb(0.201416%, 47.761536%, 95.227051%)" offset="0.222656"/><stop stop-opacity="1" stop-color="rgb(0.20752%, 47.962952%, 95.178223%)" offset="0.226563"/><stop stop-opacity="1" stop-color="rgb(0.212097%, 48.162842%, 95.127869%)" offset="0.230469"/><stop stop-opacity="1" stop-color="rgb(0.216675%, 48.362732%, 95.079041%)" offset="0.234375"/><stop stop-opacity="1" stop-color="rgb(0.221252%, 48.562622%, 95.028687%)" offset="0.238281"/><stop stop-opacity="1" stop-color="rgb(0.227356%, 48.764038%, 94.979858%)" offset="0.242188"/><stop stop-opacity="1" stop-color="rgb(0.231934%, 48.963928%, 94.929504%)" offset="0.246094"/><stop stop-opacity="1" stop-color="rgb(0.236511%, 49.163818%, 94.880676%)" offset="0.25"/><stop stop-opacity="1" stop-color="rgb(0.241089%, 49.363708%, 94.830322%)" offset="0.253906"/><stop stop-opacity="1" stop-color="rgb(0.247192%, 49.565125%, 94.781494%)" offset="0.257812"/><stop stop-opacity="1" stop-color="rgb(0.25177%, 49.765015%, 94.73114%)" offset="0.261719"/><stop stop-opacity="1" stop-color="rgb(0.256348%, 49.964905%, 94.682312%)" offset="0.265625"/><stop stop-opacity="1" stop-color="rgb(0.260925%, 50.164795%, 94.631958%)" offset="0.269531"/><stop stop-opacity="1" stop-color="rgb(0.267029%, 50.364685%, 94.58313%)" offset="0.273438"/><stop stop-opacity="1" stop-color="rgb(0.271606%, 50.564575%, 94.532776%)" offset="0.277344"/><stop stop-opacity="1" stop-color="rgb(0.276184%, 50.765991%, 94.483948%)" offset="0.28125"/><stop stop-opacity="1" stop-color="rgb(0.280762%, 50.965881%, 94.433594%)" offset="0.285156"/><stop stop-opacity="1" stop-color="rgb(0.286865%, 51.165771%, 94.384766%)" offset="0.289063"/><stop stop-opacity="1" stop-color="rgb(0.291443%, 51.365662%, 94.334412%)" offset="0.292969"/><stop stop-opacity="1" stop-color="rgb(0.296021%, 51.567078%, 94.285583%)" offset="0.296875"/><stop stop-opacity="1" stop-color="rgb(0.300598%, 51.766968%, 94.235229%)" offset="0.300781"/><stop stop-opacity="1" stop-color="rgb(0.306702%, 51.966858%, 94.186401%)" offset="0.304688"/><stop stop-opacity="1" stop-color="rgb(0.311279%, 52.166748%, 94.136047%)" offset="0.308594"/><stop stop-opacity="1" stop-color="rgb(0.315857%, 52.368164%, 94.087219%)" offset="0.3125"/><stop stop-opacity="1" stop-color="rgb(0.320435%, 52.568054%, 94.036865%)" offset="0.316406"/><stop stop-opacity="1" stop-color="rgb(0.326538%, 52.767944%, 93.988037%)" offset="0.320313"/><stop stop-opacity="1" stop-color="rgb(0.331116%, 52.967834%, 93.937683%)" offset="0.324219"/><stop stop-opacity="1" stop-color="rgb(0.335693%, 53.167725%, 93.888855%)" offset="0.328125"/><stop stop-opacity="1" stop-color="rgb(0.340271%, 53.367615%, 93.838501%)" offset="0.332031"/><stop stop-opacity="1" stop-color="rgb(0.346375%, 53.569031%, 93.789673%)" offset="0.335938"/><stop stop-opacity="1" stop-color="rgb(0.350952%, 53.768921%, 93.739319%)" offset="0.339844"/><stop stop-opacity="1" stop-color="rgb(0.357056%, 53.968811%, 93.690491%)" offset="0.34375"/><stop stop-opacity="1" stop-color="rgb(0.361633%, 54.168701%, 93.640137%)" offset="0.347656"/><stop stop-opacity="1" stop-color="rgb(0.366211%, 54.370117%, 93.591309%)" offset="0.351563"/><stop stop-opacity="1" stop-color="rgb(0.370789%, 54.570007%, 93.540955%)" offset="0.355469"/><stop stop-opacity="1" stop-color="rgb(0.376892%, 54.769897%, 93.492126%)" offset="0.359375"/><stop stop-opacity="1" stop-color="rgb(0.38147%, 54.969788%, 93.441772%)" offset="0.363281"/><stop stop-opacity="1" stop-color="rgb(0.386047%, 55.171204%, 93.392944%)" offset="0.367188"/><stop stop-opacity="1" stop-color="rgb(0.390625%, 55.371094%, 93.34259%)" offset="0.371094"/><stop stop-opacity="1" stop-color="rgb(0.396729%, 55.570984%, 93.293762%)" offset="0.375"/><stop stop-opacity="1" stop-color="rgb(0.401306%, 55.770874%, 93.243408%)" offset="0.378906"/><stop stop-opacity="1" stop-color="rgb(0.405884%, 55.970764%, 93.19458%)" offset="0.382813"/><stop stop-opacity="1" stop-color="rgb(0.410461%, 56.170654%, 93.144226%)" offset="0.386719"/><stop stop-opacity="1" stop-color="rgb(0.416565%, 56.37207%, 93.095398%)" offset="0.390625"/><stop stop-opacity="1" stop-color="rgb(0.421143%, 56.57196%, 93.045044%)" offset="0.394531"/><stop stop-opacity="1" stop-color="rgb(0.42572%, 56.771851%, 92.996216%)" offset="0.398438"/><stop stop-opacity="1" stop-color="rgb(0.430298%, 56.971741%, 92.945862%)" offset="0.402344"/><stop stop-opacity="1" stop-color="rgb(0.436401%, 57.173157%, 92.897034%)" offset="0.40625"/><stop stop-opacity="1" stop-color="rgb(0.440979%, 57.373047%, 92.84668%)" offset="0.410156"/><stop stop-opacity="1" stop-color="rgb(0.445557%, 57.572937%, 92.796326%)" offset="0.414063"/><stop stop-opacity="1" stop-color="rgb(0.450134%, 57.772827%, 92.745972%)" offset="0.417969"/><stop stop-opacity="1" stop-color="rgb(0.456238%, 57.974243%, 92.697144%)" offset="0.421875"/><stop stop-opacity="1" stop-color="rgb(0.460815%, 58.174133%, 92.64679%)" offset="0.425781"/><stop stop-opacity="1" stop-color="rgb(0.465393%, 58.374023%, 92.597961%)" offset="0.429688"/><stop stop-opacity="1" stop-color="rgb(0.469971%, 58.573914%, 92.547607%)" offset="0.433594"/><stop stop-opacity="1" stop-color="rgb(0.476074%, 58.773804%, 92.498779%)" offset="0.4375"/><stop stop-opacity="1" stop-color="rgb(0.480652%, 58.973694%, 92.448425%)" offset="0.441406"/><stop stop-opacity="1" stop-color="rgb(0.485229%, 59.17511%, 92.399597%)" offset="0.445313"/><stop stop-opacity="1" stop-color="rgb(0.489807%, 59.375%, 92.349243%)" offset="0.449219"/><stop stop-opacity="1" stop-color="rgb(0.495911%, 59.57489%, 92.300415%)" offset="0.453125"/><stop stop-opacity="1" stop-color="rgb(0.500488%, 59.77478%, 92.250061%)" offset="0.457031"/><stop stop-opacity="1" stop-color="rgb(0.505066%, 59.976196%, 92.201233%)" offset="0.460938"/><stop stop-opacity="1" stop-color="rgb(0.509644%, 60.176086%, 92.150879%)" offset="0.464844"/><stop stop-opacity="1" stop-color="rgb(0.515747%, 60.375977%, 92.102051%)" offset="0.46875"/><stop stop-opacity="1" stop-color="rgb(0.520325%, 60.575867%, 92.051697%)" offset="0.472656"/><stop stop-opacity="1" stop-color="rgb(0.524902%, 60.777283%, 92.002869%)" offset="0.476563"/><stop stop-opacity="1" stop-color="rgb(0.52948%, 60.977173%, 91.952515%)" offset="0.480469"/><stop stop-opacity="1" stop-color="rgb(0.535583%, 61.177063%, 91.903687%)" offset="0.484375"/><stop stop-opacity="1" stop-color="rgb(0.540161%, 61.376953%, 91.853333%)" offset="0.488281"/><stop stop-opacity="1" stop-color="rgb(0.546265%, 61.576843%, 91.804504%)" offset="0.492188"/><stop stop-opacity="1" stop-color="rgb(0.550842%, 61.776733%, 91.75415%)" offset="0.496094"/><stop stop-opacity="1" stop-color="rgb(0.55542%, 61.978149%, 91.705322%)" offset="0.5"/><stop stop-opacity="1" stop-color="rgb(0.559998%, 62.17804%, 91.654968%)" offset="0.503906"/><stop stop-opacity="1" stop-color="rgb(0.566101%, 62.37793%, 91.60614%)" offset="0.507812"/><stop stop-opacity="1" stop-color="rgb(0.570679%, 62.57782%, 91.555786%)" offset="0.511719"/><stop stop-opacity="1" stop-color="rgb(0.575256%, 62.779236%, 91.506958%)" offset="0.515625"/><stop stop-opacity="1" stop-color="rgb(0.579834%, 62.979126%, 91.456604%)" offset="0.519531"/><stop stop-opacity="1" stop-color="rgb(0.585938%, 63.179016%, 91.407776%)" offset="0.523438"/><stop stop-opacity="1" stop-color="rgb(0.590515%, 63.378906%, 91.357422%)" offset="0.527344"/><stop stop-opacity="1" stop-color="rgb(0.595093%, 63.578796%, 91.308594%)" offset="0.53125"/><stop stop-opacity="1" stop-color="rgb(0.59967%, 63.778687%, 91.25824%)" offset="0.535156"/><stop stop-opacity="1" stop-color="rgb(0.605774%, 63.980103%, 91.209412%)" offset="0.539062"/><stop stop-opacity="1" stop-color="rgb(0.610352%, 64.179993%, 91.159058%)" offset="0.542969"/><stop stop-opacity="1" stop-color="rgb(0.614929%, 64.379883%, 91.110229%)" offset="0.546875"/><stop stop-opacity="1" stop-color="rgb(0.619507%, 64.579773%, 91.059875%)" offset="0.550781"/><stop stop-opacity="1" stop-color="rgb(0.62561%, 64.781189%, 91.011047%)" offset="0.554688"/><stop stop-opacity="1" stop-color="rgb(0.630188%, 64.981079%, 90.960693%)" offset="0.558594"/><stop stop-opacity="1" stop-color="rgb(0.634766%, 65.180969%, 90.911865%)" offset="0.5625"/><stop stop-opacity="1" stop-color="rgb(0.639343%, 65.380859%, 90.861511%)" offset="0.566406"/><stop stop-opacity="1" stop-color="rgb(0.645447%, 65.582275%, 90.812683%)" offset="0.570312"/><stop stop-opacity="1" stop-color="rgb(0.650024%, 65.782166%, 90.762329%)" offset="0.574219"/><stop stop-opacity="1" stop-color="rgb(0.654602%, 65.982056%, 90.713501%)" offset="0.578125"/><stop stop-opacity="1" stop-color="rgb(0.65918%, 66.181946%, 90.663147%)" offset="0.582031"/><stop stop-opacity="1" stop-color="rgb(0.665283%, 66.381836%, 90.614319%)" offset="0.585938"/><stop stop-opacity="1" stop-color="rgb(0.669861%, 66.581726%, 90.563965%)" offset="0.589844"/><stop stop-opacity="1" stop-color="rgb(0.674438%, 66.783142%, 90.515137%)" offset="0.59375"/><stop stop-opacity="1" stop-color="rgb(0.679016%, 66.983032%, 90.464783%)" offset="0.597656"/><stop stop-opacity="1" stop-color="rgb(0.68512%, 67.182922%, 90.415955%)" offset="0.601562"/><stop stop-opacity="1" stop-color="rgb(0.689697%, 67.382812%, 90.365601%)" offset="0.605469"/><stop stop-opacity="1" stop-color="rgb(0.694275%, 67.584229%, 90.316772%)" offset="0.609375"/><stop stop-opacity="1" stop-color="rgb(0.698853%, 67.784119%, 90.266418%)" offset="0.613281"/><stop stop-opacity="1" stop-color="rgb(0.704956%, 67.984009%, 90.216064%)" offset="0.617188"/><stop stop-opacity="1" stop-color="rgb(0.709534%, 68.183899%, 90.16571%)" offset="0.621094"/><stop stop-opacity="1" stop-color="rgb(0.714111%, 68.385315%, 90.116882%)" offset="0.625"/><stop stop-opacity="1" stop-color="rgb(0.718689%, 68.585205%, 90.066528%)" offset="0.628906"/><stop stop-opacity="1" stop-color="rgb(0.724792%, 68.785095%, 90.0177%)" offset="0.632812"/><stop stop-opacity="1" stop-color="rgb(0.72937%, 68.984985%, 89.967346%)" offset="0.636719"/><stop stop-opacity="1" stop-color="rgb(0.735474%, 69.184875%, 89.918518%)" offset="0.640625"/><stop stop-opacity="1" stop-color="rgb(0.740051%, 69.384766%, 89.868164%)" offset="0.644531"/><stop stop-opacity="1" stop-color="rgb(0.744629%, 69.586182%, 89.819336%)" offset="0.648438"/><stop stop-opacity="1" stop-color="rgb(0.749207%, 69.786072%, 89.768982%)" offset="0.652344"/><stop stop-opacity="1" stop-color="rgb(0.75531%, 69.985962%, 89.720154%)" offset="0.65625"/><stop stop-opacity="1" stop-color="rgb(0.759888%, 70.185852%, 89.6698%)" offset="0.660156"/><stop stop-opacity="1" stop-color="rgb(0.764465%, 70.387268%, 89.620972%)" offset="0.664062"/><stop stop-opacity="1" stop-color="rgb(0.769043%, 70.587158%, 89.570618%)" offset="0.667969"/><stop stop-opacity="1" stop-color="rgb(0.775146%, 70.787048%, 89.52179%)" offset="0.671875"/><stop stop-opacity="1" stop-color="rgb(0.779724%, 70.986938%, 89.471436%)" offset="0.675781"/><stop stop-opacity="1" stop-color="rgb(0.784302%, 71.188354%, 89.422607%)" offset="0.679688"/><stop stop-opacity="1" stop-color="rgb(0.788879%, 71.388245%, 89.372253%)" offset="0.683594"/><stop stop-opacity="1" stop-color="rgb(0.794983%, 71.588135%, 89.323425%)" offset="0.6875"/><stop stop-opacity="1" stop-color="rgb(0.799561%, 71.788025%, 89.273071%)" offset="0.691406"/><stop stop-opacity="1" stop-color="rgb(0.804138%, 71.987915%, 89.224243%)" offset="0.695312"/><stop stop-opacity="1" stop-color="rgb(0.808716%, 72.187805%, 89.173889%)" offset="0.699219"/><stop stop-opacity="1" stop-color="rgb(0.814819%, 72.389221%, 89.125061%)" offset="0.703125"/><stop stop-opacity="1" stop-color="rgb(0.819397%, 72.589111%, 89.074707%)" offset="0.707031"/><stop stop-opacity="1" stop-color="rgb(0.823975%, 72.789001%, 89.025879%)" offset="0.710938"/><stop stop-opacity="1" stop-color="rgb(0.828552%, 72.988892%, 88.975525%)" offset="0.714844"/><stop stop-opacity="1" stop-color="rgb(0.834656%, 73.190308%, 88.926697%)" offset="0.71875"/><stop stop-opacity="1" stop-color="rgb(0.839233%, 73.390198%, 88.876343%)" offset="0.722656"/><stop stop-opacity="1" stop-color="rgb(0.843811%, 73.590088%, 88.827515%)" offset="0.726562"/><stop stop-opacity="1" stop-color="rgb(0.848389%, 73.789978%, 88.777161%)" offset="0.730469"/><stop stop-opacity="1" stop-color="rgb(0.854492%, 73.991394%, 88.728333%)" offset="0.734375"/><stop stop-opacity="1" stop-color="rgb(0.85907%, 74.191284%, 88.677979%)" offset="0.738281"/><stop stop-opacity="1" stop-color="rgb(0.863647%, 74.391174%, 88.62915%)" offset="0.742188"/><stop stop-opacity="1" stop-color="rgb(0.868225%, 74.591064%, 88.578796%)" offset="0.746094"/><stop stop-opacity="1" stop-color="rgb(0.874329%, 74.790955%, 88.529968%)" offset="0.75"/><stop stop-opacity="1" stop-color="rgb(0.878906%, 74.990845%, 88.479614%)" offset="0.753906"/><stop stop-opacity="1" stop-color="rgb(0.883484%, 75.192261%, 88.430786%)" offset="0.757812"/><stop stop-opacity="1" stop-color="rgb(0.888062%, 75.392151%, 88.380432%)" offset="0.761719"/><stop stop-opacity="1" stop-color="rgb(0.894165%, 75.592041%, 88.331604%)" offset="0.765625"/><stop stop-opacity="1" stop-color="rgb(0.898743%, 75.791931%, 88.28125%)" offset="0.769531"/><stop stop-opacity="1" stop-color="rgb(0.90332%, 75.993347%, 88.232422%)" offset="0.773438"/><stop stop-opacity="1" stop-color="rgb(0.907898%, 76.193237%, 88.182068%)" offset="0.777344"/><stop stop-opacity="1" stop-color="rgb(0.914001%, 76.393127%, 88.13324%)" offset="0.78125"/><stop stop-opacity="1" stop-color="rgb(0.918579%, 76.593018%, 88.082886%)" offset="0.785156"/><stop stop-opacity="1" stop-color="rgb(0.924683%, 76.794434%, 88.034058%)" offset="0.789062"/><stop stop-opacity="1" stop-color="rgb(0.92926%, 76.994324%, 87.983704%)" offset="0.792969"/><stop stop-opacity="1" stop-color="rgb(0.933838%, 77.194214%, 87.934875%)" offset="0.796875"/><stop stop-opacity="1" stop-color="rgb(0.938416%, 77.394104%, 87.884521%)" offset="0.800781"/><stop stop-opacity="1" stop-color="rgb(0.944519%, 77.593994%, 87.835693%)" offset="0.804688"/><stop stop-opacity="1" stop-color="rgb(0.949097%, 77.793884%, 87.785339%)" offset="0.808594"/><stop stop-opacity="1" stop-color="rgb(0.953674%, 77.9953%, 87.734985%)" offset="0.8125"/><stop stop-opacity="1" stop-color="rgb(0.958252%, 78.19519%, 87.684631%)" offset="0.816406"/><stop stop-opacity="1" stop-color="rgb(0.964355%, 78.395081%, 87.635803%)" offset="0.820312"/><stop stop-opacity="1" stop-color="rgb(0.968933%, 78.594971%, 87.585449%)" offset="0.824219"/><stop stop-opacity="1" stop-color="rgb(0.973511%, 78.796387%, 87.536621%)" offset="0.828125"/><stop stop-opacity="1" stop-color="rgb(0.978088%, 78.996277%, 87.486267%)" offset="0.832031"/><stop stop-opacity="1" stop-color="rgb(0.984192%, 79.196167%, 87.437439%)" offset="0.835938"/><stop stop-opacity="1" stop-color="rgb(0.98877%, 79.396057%, 87.387085%)" offset="0.839844"/><stop stop-opacity="1" stop-color="rgb(0.993347%, 79.597473%, 87.338257%)" offset="0.84375"/><stop stop-opacity="1" stop-color="rgb(0.997925%, 79.797363%, 87.287903%)" offset="0.847656"/><stop stop-opacity="1" stop-color="rgb(1.004028%, 79.997253%, 87.239075%)" offset="0.851562"/><stop stop-opacity="1" stop-color="rgb(1.008606%, 80.197144%, 87.188721%)" offset="0.855469"/><stop stop-opacity="1" stop-color="rgb(1.013184%, 80.397034%, 87.139893%)" offset="0.859375"/><stop stop-opacity="1" stop-color="rgb(1.017761%, 80.596924%, 87.089539%)" offset="0.863281"/><stop stop-opacity="1" stop-color="rgb(1.023865%, 80.79834%, 87.04071%)" offset="0.867188"/><stop stop-opacity="1" stop-color="rgb(1.028442%, 80.99823%, 86.990356%)" offset="0.871094"/><stop stop-opacity="1" stop-color="rgb(1.03302%, 81.19812%, 86.941528%)" offset="0.875"/><stop stop-opacity="1" stop-color="rgb(1.037598%, 81.39801%, 86.891174%)" offset="0.878906"/><stop stop-opacity="1" stop-color="rgb(1.043701%, 81.599426%, 86.842346%)" offset="0.882812"/><stop stop-opacity="1" stop-color="rgb(1.048279%, 81.799316%, 86.791992%)" offset="0.886719"/><stop stop-opacity="1" stop-color="rgb(1.052856%, 81.999207%, 86.743164%)" offset="0.890625"/><stop stop-opacity="1" stop-color="rgb(1.057434%, 82.199097%, 86.69281%)" offset="0.894531"/><stop stop-opacity="1" stop-color="rgb(1.063538%, 82.398987%, 86.643982%)" offset="0.898438"/><stop stop-opacity="1" stop-color="rgb(1.068115%, 82.598877%, 86.593628%)" offset="0.902344"/><stop stop-opacity="1" stop-color="rgb(1.072693%, 82.800293%, 86.5448%)" offset="0.90625"/><stop stop-opacity="1" stop-color="rgb(1.077271%, 83.000183%, 86.494446%)" offset="0.910156"/><stop stop-opacity="1" stop-color="rgb(1.083374%, 83.200073%, 86.445618%)" offset="0.914062"/><stop stop-opacity="1" stop-color="rgb(1.087952%, 83.399963%, 86.395264%)" offset="0.917969"/><stop stop-opacity="1" stop-color="rgb(1.092529%, 83.601379%, 86.346436%)" offset="0.921875"/><stop stop-opacity="1" stop-color="rgb(1.097107%, 83.80127%, 86.296082%)" offset="0.925781"/><stop stop-opacity="1" stop-color="rgb(1.10321%, 84.00116%, 86.247253%)" offset="0.929688"/><stop stop-opacity="1" stop-color="rgb(1.107788%, 84.20105%, 86.196899%)" offset="0.933594"/><stop stop-opacity="1" stop-color="rgb(1.113892%, 84.402466%, 86.148071%)" offset="0.9375"/><stop stop-opacity="1" stop-color="rgb(1.118469%, 84.602356%, 86.097717%)" offset="0.941406"/><stop stop-opacity="1" stop-color="rgb(1.123047%, 84.802246%, 86.048889%)" offset="0.945312"/><stop stop-opacity="1" stop-color="rgb(1.127625%, 85.002136%, 85.998535%)" offset="0.949219"/><stop stop-opacity="1" stop-color="rgb(1.133728%, 85.202026%, 85.949707%)" offset="0.953125"/><stop stop-opacity="1" stop-color="rgb(1.138306%, 85.401917%, 85.899353%)" offset="0.957031"/><stop stop-opacity="1" stop-color="rgb(1.142883%, 85.603333%, 85.850525%)" offset="0.960938"/><stop stop-opacity="1" stop-color="rgb(1.147461%, 85.803223%, 85.800171%)" offset="0.964844"/><stop stop-opacity="1" stop-color="rgb(1.153564%, 86.003113%, 85.751343%)" offset="0.96875"/><stop stop-opacity="1" stop-color="rgb(1.158142%, 86.203003%, 85.700989%)" offset="0.972656"/><stop stop-opacity="1" stop-color="rgb(1.16272%, 86.404419%, 85.652161%)" offset="0.976562"/><stop stop-opacity="1" stop-color="rgb(1.167297%, 86.604309%, 85.601807%)" offset="0.980469"/><stop stop-opacity="1" stop-color="rgb(1.173401%, 86.804199%, 85.552979%)" offset="0.984375"/><stop stop-opacity="1" stop-color="rgb(1.176453%, 86.930847%, 85.520935%)" offset="1"/></linearGradient><clipPath id="f5d2f64f2e"><rect x="0" width="419" y="0" height="194"/></clipPath></defs><g clip-path="url(#46b97d748d)"><g clip-path="url(#1aeb998463)"><path fill="url(#351ee3877c)" d="M 0.257812 52.183594 L 0.257812 322.933594 L 259.113281 322.933594 L 259.113281 52.183594 Z M 0.257812 52.183594 " fill-rule="nonzero"/></g></g><g transform="matrix(1, 0, 0, 1, 286, 92)"><g clip-path="url(#f5d2f64f2e)"><g fill="#38b6ff" fill-opacity="0.4"><g transform="translate(4.961698, 153.928425)"><g><path d="M 3.953125 0 L 3.953125 -113.015625 L 25.78125 -113.015625 L 25.78125 0 Z M 3.953125 0 "/></g></g></g><g fill="#38b6ff" fill-opacity="0.4"><g transform="translate(34.821179, 153.928425)"><g><path d="M 5 0 L 5 -113.015625 L 39.46875 -113.015625 L 48.9375 -44.078125 L 58.40625 -113.015625 L 93.140625 -113.015625 L 93.140625 0 L 72.484375 0 L 72.484375 -81.4375 L 59.46875 0 L 39.203125 0 L 25.390625 -81.4375 L 25.390625 0 Z M 5 0 "/></g></g></g><g fill="#38b6ff" fill-opacity="0.4"><g transform="translate(132.949685, 153.928425)"><g><path d="M 28.28125 1.046875 C 20.125 1.046875 14.050781 -1.820312 10.0625 -7.5625 C 6.070312 -13.3125 4.078125 -22.019531 4.078125 -33.6875 L 4.078125 -82.359375 C 4.078125 -92.796875 6.398438 -100.6875 11.046875 -106.03125 C 15.703125 -111.382812 22.632812 -114.0625 31.84375 -114.0625 C 39.289062 -114.0625 45.078125 -112.570312 49.203125 -109.59375 C 53.328125 -106.613281 56.175781 -102.269531 57.75 -96.5625 C 59.332031 -90.863281 60.125 -83.539062 60.125 -74.59375 L 38.015625 -74.59375 L 38.015625 -84.71875 C 38.015625 -87.4375 37.640625 -89.539062 36.890625 -91.03125 C 36.148438 -92.53125 34.816406 -93.28125 32.890625 -93.28125 C 28.585938 -93.28125 26.4375 -90.472656 26.4375 -84.859375 L 26.4375 -30.125 C 26.4375 -26.707031 26.875 -24.117188 27.75 -22.359375 C 28.632812 -20.609375 30.171875 -19.734375 32.359375 -19.734375 C 34.554688 -19.734375 36.09375 -20.609375 36.96875 -22.359375 C 37.84375 -24.117188 38.28125 -26.707031 38.28125 -30.125 L 38.28125 -46.3125 L 32.234375 -46.3125 L 32.234375 -65.78125 L 59.859375 -65.78125 L 59.859375 0 L 50.78125 0 L 46.96875 -9.46875 C 42.9375 -2.457031 36.707031 1.046875 28.28125 1.046875 Z M 28.28125 1.046875 "/></g></g></g><g fill="#38b6ff" fill-opacity="0.4"><g transform="translate(196.746373, 153.928425)"><g><path d="M 3.8125 -32.765625 L 3.8125 -47.625 L 36.96875 -47.625 L 36.96875 -32.765625 Z M 3.8125 -32.765625 "/></g></g></g><g fill="#38b6ff" fill-opacity="0.4"><g transform="translate(237.655175, 153.928425)"><g><path d="M 28.28125 1.046875 C 20.125 1.046875 14.050781 -1.820312 10.0625 -7.5625 C 6.070312 -13.3125 4.078125 -22.019531 4.078125 -33.6875 L 4.078125 -82.359375 C 4.078125 -92.796875 6.398438 -100.6875 11.046875 -106.03125 C 15.703125 -111.382812 22.632812 -114.0625 31.84375 -114.0625 C 39.289062 -114.0625 45.078125 -112.570312 49.203125 -109.59375 C 53.328125 -106.613281 56.175781 -102.269531 57.75 -96.5625 C 59.332031 -90.863281 60.125 -83.539062 60.125 -74.59375 L 38.015625 -74.59375 L 38.015625 -84.71875 C 38.015625 -87.4375 37.640625 -89.539062 36.890625 -91.03125 C 36.148438 -92.53125 34.816406 -93.28125 32.890625 -93.28125 C 28.585938 -93.28125 26.4375 -90.472656 26.4375 -84.859375 L 26.4375 -30.125 C 26.4375 -26.707031 26.875 -24.117188 27.75 -22.359375 C 28.632812 -20.609375 30.171875 -19.734375 32.359375 -19.734375 C 34.554688 -19.734375 36.09375 -20.609375 36.96875 -22.359375 C 37.84375 -24.117188 38.28125 -26.707031 38.28125 -30.125 L 38.28125 -46.3125 L 32.234375 -46.3125 L 32.234375 -65.78125 L 59.859375 -65.78125 L 59.859375 0 L 50.78125 0 L 46.96875 -9.46875 C 42.9375 -2.457031 36.707031 1.046875 28.28125 1.046875 Z M 28.28125 1.046875 "/></g></g></g><g fill="#38b6ff" fill-opacity="0.4"><g transform="translate(301.451863, 153.928425)"><g><path d="M 5 0 L 5 -113.015625 L 50.25 -113.015625 L 50.25 -91.171875 L 28.015625 -91.171875 L 28.015625 -69.203125 L 49.328125 -69.203125 L 49.328125 -47.890625 L 28.015625 -47.890625 L 28.015625 -21.96875 L 51.703125 -21.96875 L 51.703125 0 Z M 5 0 "/></g></g></g><g fill="#38b6ff" fill-opacity="0.4"><g transform="translate(355.646146, 153.928425)"><g><path d="M 5 0 L 5 -113.015625 L 28.28125 -113.015625 L 38.671875 -58.9375 L 38.671875 -113.015625 L 60.515625 -113.015625 L 60.515625 0 L 38.421875 0 L 27.109375 -56.578125 L 27.109375 0 Z M 5 0 "/></g></g></g><g fill="#38b6ff" fill-opacity="1"><g transform="translate(1.124159, 150.090872)"><g><path d="M 3.953125 0 L 3.953125 -113.015625 L 25.78125 -113.015625 L 25.78125 0 Z M 3.953125 0 "/></g></g></g><g fill="#38b6ff" fill-opacity="1"><g transform="translate(30.98364, 150.090872)"><g><path d="M 5 0 L 5 -113.015625 L 39.46875 -113.015625 L 48.9375 -44.078125 L 58.40625 -113.015625 L 93.140625 -113.015625 L 93.140625 0 L 72.484375 0 L 72.484375 -81.4375 L 59.46875 0 L 39.203125 0 L 25.390625 -81.4375 L 25.390625 0 Z M 5 0 "/></g></g></g><g fill="#38b6ff" fill-opacity="1"><g transform="translate(129.112146, 150.090872)"><g><path d="M 28.28125 1.046875 C 20.125 1.046875 14.050781 -1.820312 10.0625 -7.5625 C 6.070312 -13.3125 4.078125 -22.019531 4.078125 -33.6875 L 4.078125 -82.359375 C 4.078125 -92.796875 6.398438 -100.6875 11.046875 -106.03125 C 15.703125 -111.382812 22.632812 -114.0625 31.84375 -114.0625 C 39.289062 -114.0625 45.078125 -112.570312 49.203125 -109.59375 C 53.328125 -106.613281 56.175781 -102.269531 57.75 -96.5625 C 59.332031 -90.863281 60.125 -83.539062 60.125 -74.59375 L 38.015625 -74.59375 L 38.015625 -84.71875 C 38.015625 -87.4375 37.640625 -89.539062 36.890625 -91.03125 C 36.148438 -92.53125 34.816406 -93.28125 32.890625 -93.28125 C 28.585938 -93.28125 26.4375 -90.472656 26.4375 -84.859375 L 26.4375 -30.125 C 26.4375 -26.707031 26.875 -24.117188 27.75 -22.359375 C 28.632812 -20.609375 30.171875 -19.734375 32.359375 -19.734375 C 34.554688 -19.734375 36.09375 -20.609375 36.96875 -22.359375 C 37.84375 -24.117188 38.28125 -26.707031 38.28125 -30.125 L 38.28125 -46.3125 L 32.234375 -46.3125 L 32.234375 -65.78125 L 59.859375 -65.78125 L 59.859375 0 L 50.78125 0 L 46.96875 -9.46875 C 42.9375 -2.457031 36.707031 1.046875 28.28125 1.046875 Z M 28.28125 1.046875 "/></g></g></g><g fill="#38b6ff" fill-opacity="1"><g transform="translate(192.908834, 150.090872)"><g><path d="M 3.8125 -32.765625 L 3.8125 -47.625 L 36.96875 -47.625 L 36.96875 -32.765625 Z M 3.8125 -32.765625 "/></g></g></g><g fill="#38b6ff" fill-opacity="1"><g transform="translate(233.817636, 150.090872)"><g><path d="M 28.28125 1.046875 C 20.125 1.046875 14.050781 -1.820312 10.0625 -7.5625 C 6.070312 -13.3125 4.078125 -22.019531 4.078125 -33.6875 L 4.078125 -82.359375 C 4.078125 -92.796875 6.398438 -100.6875 11.046875 -106.03125 C 15.703125 -111.382812 22.632812 -114.0625 31.84375 -114.0625 C 39.289062 -114.0625 45.078125 -112.570312 49.203125 -109.59375 C 53.328125 -106.613281 56.175781 -102.269531 57.75 -96.5625 C 59.332031 -90.863281 60.125 -83.539062 60.125 -74.59375 L 38.015625 -74.59375 L 38.015625 -84.71875 C 38.015625 -87.4375 37.640625 -89.539062 36.890625 -91.03125 C 36.148438 -92.53125 34.816406 -93.28125 32.890625 -93.28125 C 28.585938 -93.28125 26.4375 -90.472656 26.4375 -84.859375 L 26.4375 -30.125 C 26.4375 -26.707031 26.875 -24.117188 27.75 -22.359375 C 28.632812 -20.609375 30.171875 -19.734375 32.359375 -19.734375 C 34.554688 -19.734375 36.09375 -20.609375 36.96875 -22.359375 C 37.84375 -24.117188 38.28125 -26.707031 38.28125 -30.125 L 38.28125 -46.3125 L 32.234375 -46.3125 L 32.234375 -65.78125 L 59.859375 -65.78125 L 59.859375 0 L 50.78125 0 L 46.96875 -9.46875 C 42.9375 -2.457031 36.707031 1.046875 28.28125 1.046875 Z M 28.28125 1.046875 "/></g></g></g><g fill="#38b6ff" fill-opacity="1"><g transform="translate(297.614324, 150.090872)"><g><path d="M 5 0 L 5 -113.015625 L 50.25 -113.015625 L 50.25 -91.171875 L 28.015625 -91.171875 L 28.015625 -69.203125 L 49.328125 -69.203125 L 49.328125 -47.890625 L 28.015625 -47.890625 L 28.015625 -21.96875 L 51.703125 -21.96875 L 51.703125 0 Z M 5 0 "/></g></g></g><g fill="#38b6ff" fill-opacity="1"><g transform="translate(351.808607, 150.090872)"><g><path d="M 5 0 L 5 -113.015625 L 28.28125 -113.015625 L 38.671875 -58.9375 L 38.671875 -113.015625 L 60.515625 -113.015625 L 60.515625 0 L 38.421875 0 L 27.109375 -56.578125 L 27.109375 0 Z M 5 0 "/></g></g></g></g></g></svg>